<svg xmlns="http://www.w3.org/2000/svg" xmlns:xlink="http://www.w3.org/1999/xlink" viewBox="0 0 400.73 419.71"><defs><style>.cls-1,.cls-2{stroke:#9c5a08;stroke-miterlimit:10;stroke-width:3px;}.cls-1{fill:url(#Dégradé_sans_nom_13);}.cls-2{fill:url(#Dégradé_sans_nom_13-2);}</style><linearGradient id="Dégradé_sans_nom_13" x1="1.5" y1="209.51" x2="334.74" y2="209.51" gradientUnits="userSpaceOnUse"><stop offset="0" stop-color="#ebbb39"/><stop offset="0.2" stop-color="#fde785"/><stop offset="0.6" stop-color="#975102"/><stop offset="1" stop-color="#edb037"/></linearGradient><linearGradient id="Dégradé_sans_nom_13-2" x1="12.44" y1="209.85" x2="399.23" y2="209.85" xlink:href="#Dégradé_sans_nom_13"/></defs><g id="Calque_2" data-name="Calque 2"><g id="Calque_1-2" data-name="Calque 1"><g id="icon"><path class="cls-1" d="M204,65.59c22.16,0,44.31-.17,66.46,0,19.55.2,34.81,9,43.25,26.35,9,18.5,6.47,36.87-6.2,53.47-9.91,13-23.62,16.66-39.21,16.59q-49.74-.2-99.48.23c-10.47.09-21.12.08-31.37,1.89-26,4.6-41.43,20-37.9,51.58a60.55,60.55,0,0,0,3.5,14.93c6.56,17,20.4,24.25,37.56,24.78,32.59,1,65.21,1.2,97.81,1.59,17.47.21,35-.42,52.41.35,25,1.1,43.23,22.62,43.86,46,.57,21.57-10.76,39-30.93,47.26a39.46,39.46,0,0,1-14.58,2.8c-35.47,0-70.94-.36-106.42-.65-17.78-.15-35.6.24-53.33-.78a128.83,128.83,0,0,1-69.89-25.56C29,303.91,9.9,273.72,3.81,235.9-4.7,183,10.29,137.63,49.47,101.21c24.34-22.64,54.26-34,87.63-34.87,22.29-.59,44.62-.11,66.94-.11Zm8.85,224.6V290c-8.67,0-17.34.11-26,0-17.81-.25-35.76.67-53.39-1.28-23.44-2.59-42.21-14.46-55.25-34.5C67.53,237.77,65,219.78,66.48,200.4c3.16-40.09,34.1-69.65,74.45-69.93,28.49-.2,57-.25,85.49-.49,14.83-.13,29.66-.37,44.48-.87,8.81-.3,14.86-7,14.74-15.65-.1-8.25-5.34-13.64-14.13-14.36-4.15-.34-8.32-.64-12.47-.62q-57,.27-113.94.7c-22.79.19-44,5.63-63.32,18.29-25.86,17-41,40.91-45.83,71.07a127.58,127.58,0,0,0,6.79,65.69c13.3,35.5,38.9,56.65,76.11,62.57,18.82,3,38.06,4.08,57.14,4.55,24.64.61,49.31-.28,74-.47,12.33-.1,24.66,0,37-.12,6.22-.06,11-2.76,13.33-8.67,2.86-7.09,2.07-13.81-3.57-17.6a27,27,0,0,0-13.9-4.12C259.51,290,236.19,290.19,212.88,290.19Z"/><path class="cls-2" d="M14.78,312.64c5.38,4.28,10.59,8.81,16.18,12.81,19.34,13.85,38.54,27.92,58.3,41.14,18.16,12.15,38.84,17.46,60.52,18,24.65.56,49.32.26,74,.32,21.31.05,42.66.71,63.95-.05,31.9-1.14,55.77-16.07,70.57-44.5,15-28.72,7.83-67.62-15.12-90.42-18.89-18.77-41.59-24.79-67.38-24.16-23.91.58-47.85-.16-71.78-.14-17.81,0-35.62.41-53.43.38a30.61,30.61,0,0,1-11.14-1.9c-6.44-2.61-9.53-8.49-9-15.21a17.1,17.1,0,0,1,12-14.47,31,31,0,0,1,8.4-1.06c14.78.22,29.57.77,44.35.91,23.63.23,47.26,0,70.88.37,36.11.57,69.68-22.85,80.77-57.11,4.46-13.77,4-27.85.69-41.82C343.16,77.15,334.11,61.36,319,49.52a66.37,66.37,0,0,0-40.37-14q-43.45-.87-86.93-.82c-18.15,0-36.31.77-54.45,1.42s-34.37,7.46-49.07,17.76C71.38,65.6,54.61,77.35,38.37,89.78c-7.47,5.71-13.69,13-20.45,19.66-1.5,1.47-2.89,3.06-5.37,5.7,0-3.12-.28-4.81,0-6.37,5.25-25.78,18.8-47,36.83-65.59,17.39-17.9,37.75-31.51,62.66-35.89a358.31,358.31,0,0,1,51.63-4.88c32.61-.92,65.27-1.08,97.9-.76,24,.24,47.9,3.09,68.48,16.64,32,21.09,50.81,50.45,52.76,89.54,1.46,29.24-6.91,55.14-26,77.34-4.85,5.64-10.67,10.45-16.18,15.5-3.54,3.26-3.15,5.58,1,7.94,11,6.28,21.51,13.36,29.84,23.12,22,25.73,31.36,55.7,26.53,88.94-6.66,45.77-33.47,76-76.66,91.78-13.63,5-28,5.52-42.38,5.46-44.49-.2-89,1.07-133.46-.5-50.92-1.8-90.71-25-117.48-68.76-5.58-9.11-9.1-19.5-13.45-29.36a30.56,30.56,0,0,1-1.32-5.55Z"/></g></g></g></svg>