<svg xmlns="http://www.w3.org/2000/svg" xmlns:xlink="http://www.w3.org/1999/xlink" viewBox="0 0 397.73 416.71"><defs><style>.cls-1{fill:url(#Dégradé_sans_nom_121);}.cls-2{fill:url(#Dégradé_sans_nom_121-2);}</style><linearGradient id="Dégradé_sans_nom_121" y1="208.01" x2="333.24" y2="208.01" gradientUnits="userSpaceOnUse"><stop offset="0" stop-color="#fff"/><stop offset="0.2" stop-color="#fff"/><stop offset="0.39" stop-color="#fdfdfd"/><stop offset="0.45" stop-color="#f6f7f7"/><stop offset="0.5" stop-color="#ebebec"/><stop offset="0.54" stop-color="#dadadc"/><stop offset="0.57" stop-color="#c4c5c7"/><stop offset="0.6" stop-color="#a9abae"/><stop offset="0.6" stop-color="#a7a9ac"/><stop offset="0.6" stop-color="#a9abae"/><stop offset="0.63" stop-color="#c4c5c7"/><stop offset="0.66" stop-color="#dadadc"/><stop offset="0.7" stop-color="#ebebec"/><stop offset="0.75" stop-color="#f6f7f7"/><stop offset="0.82" stop-color="#fdfdfd"/><stop offset="1" stop-color="#fff"/></linearGradient><linearGradient id="Dégradé_sans_nom_121-2" x1="10.94" y1="208.35" x2="397.73" y2="208.35" xlink:href="#Dégradé_sans_nom_121"/></defs><g id="Calque_2" data-name="Calque 2"><g id="Calque_1-2" data-name="Calque 1"><g id="whiteIconOnDark"><g id="icon"><path class="cls-1" d="M202.53,64.09c22.16,0,44.31-.17,66.46,0,19.55.2,34.81,9,43.25,26.35,9,18.5,6.47,36.87-6.2,53.47-9.91,13-23.62,16.66-39.21,16.59q-49.74-.2-99.48.23c-10.47.09-21.12.08-31.37,1.89-26,4.6-41.43,20-37.9,51.58a60.55,60.55,0,0,0,3.5,14.93c6.56,17,20.4,24.25,37.56,24.78,32.59,1,65.21,1.2,97.81,1.59,17.47.21,35-.42,52.41.35,25,1.1,43.23,22.62,43.86,46,.57,21.57-10.76,39-30.93,47.26a39.46,39.46,0,0,1-14.58,2.8c-35.47,0-70.94-.36-106.42-.65-17.78-.15-35.6.24-53.33-.78A128.83,128.83,0,0,1,58.07,325C27.46,302.41,8.4,272.22,2.31,234.4-6.2,181.53,8.79,136.13,48,99.71c24.34-22.64,54.26-34,87.63-34.87,22.29-.59,44.62-.11,66.94-.11Zm8.85,224.6v-.17c-8.67,0-17.34.11-26,0-17.81-.25-35.76.67-53.39-1.28-23.44-2.59-42.21-14.46-55.25-34.5C66,236.27,63.45,218.28,65,198.9c3.16-40.09,34.1-69.65,74.45-69.93,28.49-.2,57-.25,85.49-.49,14.83-.13,29.66-.37,44.48-.87,8.81-.3,14.86-7,14.74-15.65C284,103.71,278.8,98.32,270,97.6c-4.15-.34-8.32-.64-12.47-.62q-57,.27-113.94.7c-22.79.19-44,5.63-63.32,18.29-25.86,17-41,40.91-45.83,71.07a127.58,127.58,0,0,0,6.79,65.69c13.3,35.5,38.9,56.65,76.11,62.57,18.82,3,38.06,4.08,57.14,4.55,24.64.61,49.31-.28,74-.47,12.33-.1,24.66,0,37-.12,6.22-.06,11-2.76,13.33-8.67,2.86-7.09,2.07-13.81-3.57-17.6a27,27,0,0,0-13.9-4.12C258,288.47,234.69,288.69,211.38,288.69Z"/><path class="cls-2" d="M13.28,311.14C18.66,315.42,23.87,320,29.46,324,48.8,337.8,68,351.87,87.76,365.09c18.16,12.15,38.84,17.46,60.52,18,24.65.56,49.32.26,74,.32,21.31.05,42.66.71,63.95-.05,31.9-1.14,55.77-16.07,70.57-44.5,15-28.72,7.83-67.62-15.12-90.42-18.89-18.77-41.59-24.79-67.38-24.16-23.91.58-47.85-.16-71.78-.14-17.81,0-35.62.41-53.43.38a30.61,30.61,0,0,1-11.14-1.9c-6.44-2.61-9.53-8.49-9-15.21a17.1,17.1,0,0,1,12-14.47,31,31,0,0,1,8.4-1.06c14.78.22,29.57.77,44.35.91,23.63.23,47.26,0,70.88.37,36.11.57,69.68-22.85,80.77-57.11,4.46-13.77,4-27.85.69-41.82C341.66,75.65,332.61,59.86,317.46,48a66.37,66.37,0,0,0-40.37-14q-43.45-.87-86.93-.82c-18.15,0-36.31.77-54.45,1.42s-34.37,7.46-49.07,17.76C69.88,64.1,53.11,75.85,36.87,88.28c-7.47,5.71-13.69,13-20.45,19.66-1.5,1.47-2.89,3.06-5.37,5.7,0-3.12-.28-4.81,0-6.37,5.25-25.78,18.8-47,36.83-65.59,17.39-17.9,37.75-31.51,62.66-35.89A358.31,358.31,0,0,1,162.21.91C194.82,0,227.48-.17,260.11.15c24,.24,47.9,3.09,68.48,16.64,32,21.09,50.81,50.45,52.76,89.54,1.46,29.24-6.91,55.14-26,77.34-4.85,5.64-10.67,10.45-16.18,15.5-3.54,3.26-3.15,5.58,1,7.94,11,6.28,21.51,13.36,29.84,23.12,22,25.73,31.36,55.7,26.53,88.94-6.66,45.77-33.47,76-76.66,91.78-13.63,5-28,5.52-42.38,5.46-44.49-.2-89,1.07-133.46-.5-50.92-1.8-90.71-25-117.48-68.76-5.58-9.11-9.1-19.5-13.45-29.36a30.56,30.56,0,0,1-1.32-5.55Z"/></g></g></g></g></svg>