<?xml version="1.0" encoding="utf-8"?>
<!-- Generator: Adobe Illustrator 26.0.1, SVG Export Plug-In . SVG Version: 6.00 Build 0)  -->
<svg version="1.1" id="Calque_1" xmlns="http://www.w3.org/2000/svg" xmlns:xlink="http://www.w3.org/1999/xlink" x="0px" y="0px"
	 viewBox="0 0 512 254.3" style="enable-background:new 0 0 512 254.3;" xml:space="preserve">
<style type="text/css">
	.st0{fill:#D61A0C;}
	.st1{fill:#FFFFFF;}
</style>
<rect class="st0" width="512" height="254.3"/>
<g>
	<path class="st1" d="M375,48.4c5.5,10.8,10.6,21,15.8,31.2c8.1,16,16.3,32,24.3,48c3.3,6.5,5.6,13.4,5.8,20.8
		c0.3,9.5-4.1,16.2-12.8,20.1c-6.9,3.1-14.2,4.2-21.7,4.4c-11.7,0.3-23.4,0.1-35,0.1c-2,0-3.5,0.4-2.8-2.9
		c8.6-39.5,17-79.1,25.5-118.7C374.3,50.6,374.6,49.9,375,48.4z"/>
	<path class="st1" d="M451.7,146.7c-4.5-8.9-9-17.5-13.4-26.1c-8.8-17.4-17.6-34.8-26.3-52.2c-3.3-6.7-5.8-13.6-6-21.2
		c-0.3-9.6,4.2-16.2,12.9-20.1c7-3.2,14.6-4.2,22.1-4.4c11.5-0.3,23-0.1,34.6-0.1c1.5,0,3.5-0.8,2.8,2.5
		c-8.7,40.2-17.3,80.3-25.9,120.5C452.4,145.8,452.2,146,451.7,146.7z"/>
	<path class="st1" d="M133.1,173c4.6-21.9,9.1-43.3,13.6-64.7c2-9.7,4.3-19.4,6.1-29.1c0.6-3.1,1.5-4.2,4.8-4.2
		c12.6,0.2,25.3,0,37.9,0.1c10.4,0.1,17.9,4.8,20.5,12.4c3,8.9,0,18.6-7.8,25c-3.8,3.2-8.3,5.1-13,6.8c0.4,0.3,0.6,0.6,0.8,0.7
		c15.5,2.9,20.5,13.5,15.1,28.7c-5.2,14.6-16.9,21.1-31.3,23.3C164.5,174.3,149,172.4,133.1,173z"/>
	<path class="st1" d="M66.9,174.5c-2.7-0.2-5.5-0.2-8.4-0.5C41,172.4,31.1,160.5,34,143.3c3.8-21.9,8.7-43.5,13.1-65.3
		c0.5-2.3,1.6-3,3.9-3c4.3,0.2,8.5,0.2,12.8-0.1c3.1-0.2,3.6,0.8,3,3.7c-3.8,18-7.4,36.1-10.9,54.2c-1.1,5.6-1.8,11.2-0.6,16.9
		c1.5,7.4,6.1,11.5,13.7,12c14.8,0.9,26.1-8.9,29.8-26.1c4-18.5,7.9-36.9,11.6-55.5c0.8-4.1,2.3-5.9,6.7-5.2c4,0.7,9.4-1.8,11.6,1
		c2,2.5-0.9,7.4-1.7,11.2c-3.5,16.8-7.7,33.5-10.8,50.3C113,155,97.5,172.2,75,174C72.4,174.3,69.7,174.4,66.9,174.5z"/>
	<path class="st1" d="M217.6,172.4c1.9-2.8,3.2-4.8,4.6-6.8c19.6-28.9,39.2-57.9,58.8-86.8c1.3-1.9,2.3-3.9,5.4-3.9
		c3.2,0,4.6,0.8,5.4,4.1c7.1,29.9,14.3,59.7,21.7,89.5c0.8,3.3,0.4,4.1-3,4c-4.6-0.2-9.2-0.3-13.7,0c-3.1,0.2-4.1-1.1-4.5-3.9
		c-0.6-4-1.8-8-2.4-12c-0.4-2.3-1.2-3.2-3.6-3.1c-11.8,0.1-23.7,0.1-35.5,0c-2.2,0-3.5,0.8-4.6,2.6c-2.9,4.7-6,9.2-9.1,13.8
		c-0.9,1.3-1.6,2.7-3.6,2.6C228.4,172.4,223.4,172.4,217.6,172.4z"/>
	<path class="st1" d="M192.1,214.4c4.9,2.2,6.9,5.6,5.6,10.4c-1.3,4.7-5,6.1-9.4,6.3c-9.2,0.5-9.2,0.5-9.2-8.5
		c0-6.1,0.1-12.3-0.1-18.4c0-2.2,0.6-3.2,2.9-3c2,0.1,4.1-0.2,6.1,0c3.5,0.2,6.5,1.1,7.8,4.9C197.2,209.8,195.3,212.1,192.1,214.4z"
		/>
	<path class="st1" d="M42.1,213.8c0-3.3,0-6.6,0-9.9c0-1.4,0-2.4,1.9-2.4c1.8,0,2.1,0.9,2,2.4c0,5.5-0.1,11,0,16.6
		c0.1,5.3,2.4,7.9,6.7,7.8c4.2-0.1,6.1-2.5,6.2-7.8c0-5.4,0-10.7,0-16.1c0-1.4-0.2-2.8,2-2.9c2.3,0,2,1.4,2,2.8
		c0,6.1,0.1,12.3-0.1,18.4c-0.2,5.9-4.3,9.2-10.9,9.1c-6.4-0.1-9.8-3.3-9.9-9.5C42,219.4,42.1,216.6,42.1,213.8z"/>
	<path class="st1" d="M156.8,210c0-2.6,0.1-5,0-7.3c-0.1-1.6,0.6-2.2,2.2-2.2c1.6,0,1.7,1,1.7,2.2c0,8.8,0,17.7,0,26.5
		c0,1-0.3,2.3-1.4,1.9c-3.2-1.1-6,0.9-9.1,0.6c-5.5-0.6-9.1-5.7-8.5-12.1c0.6-6.3,5.6-11,11.2-10.4
		C154.1,209.3,155.3,209.6,156.8,210z"/>
	<path class="st1" d="M263.7,209.3c-8.5,7-4.7,13.2,0.2,19.4c0.4,0.5,0.6,1,1.1,1.7c-2.1,1.4-3.6,0.9-4.8-0.9c-1.3-2-2.5-4-3.8-6
		c-0.7-1-1.1-3-2.3-2.5c-1.4,0.6-2.9,2-3,3.9c-0.1,1.4,0,2.8,0.1,4.3c0,1.4-0.8,1.9-2.1,1.9c-1.4,0-2-0.6-2-2c0-8.8,0-17.7,0-26.5
		c0-1.5,0.5-2.3,2.2-2.3c1.9,0,1.9,1.2,1.9,2.6c0,5.1,0,10.3,0,15.6C255.8,216,256.7,208.9,263.7,209.3z"/>
	<path class="st1" d="M366.9,230.7c-3.2,1.1-5,0.2-5.4-2.5c-0.5-3.3-2.7-3.5-5.2-3.1c-2.9,0.5-6.9-2-8.1,3c-0.3,1.1-0.5,2.3-1.6,2.8
		c-0.8,0.3-1.9,0.4-2.7,0.1c-1.2-0.4-0.6-1.6-0.3-2.4c3.7-9.2,7.4-18.3,11.6-28.9C359.5,210.9,363.1,220.8,366.9,230.7z"/>
	<path class="st1" d="M130.7,220.7c-1.3,0-2.5-0.1-3.8,0c-1.4,0.2-3.6-1-4.1,1.1c-0.4,1.6,0.6,3.4,1.9,4.6c2.6,2.5,5.7,2.4,8.8,1
		c1.3-0.6,2-0.4,2.6,0.8c0.7,1.3-0.3,1.6-1.1,2.1c-3.8,2.4-9.9,1.8-13.2-1.4c-3.7-3.5-4.4-10.2-1.6-14.8c2.6-4.3,7.6-6.1,12.3-4.5
		c1.5,0.5,2.9,1.3,3.9,2.5c1.9,2.2,2.9,4.9,1.9,7.4c-0.9,2.4-3.6,0.8-5.5,1.1C132.3,220.8,131.5,220.7,130.7,220.7z"/>
	<path class="st1" d="M441.1,209c5.6-0.1,8.3,2.4,9,8c0.5,4.3-0.7,8.6,1.3,13c1,2.3-1.7,1.6-2.6,1c-1.6-1.3-2.7-1.4-4.7-0.4
		c-4.6,2.4-9.3,0.7-10.6-3.3c-1.3-4,1.4-8.2,6.2-9.5c0.6-0.2,1.3,0,1.8-0.3c1.4-0.8,4.4,1.8,4.4-1.5c-0.1-3.3-3.1-3.2-5.7-3.3
		c-1.8-0.1-4.8,3.3-5.2-0.5c-0.3-3.1,3.5-2.5,5.8-3C440.8,209,441,209,441.1,209z"/>
	<path class="st1" d="M218.3,221.8c0.4,2.4-0.9,5.4,1.4,7.8c0.4,0.5,0.6,1.1,0,1.7c-0.7,0.6-1.7,0.6-2.2,0.1
		c-2.3-2.4-4.4-1.1-6.9-0.2c-3.6,1.4-6.9,0.4-8.7-3.3c-1.9-3.8-0.1-6.7,3-8.9c1.7-1.2,3.7-1.5,5.8-1.7c1.2-0.1,3.3,1.2,3.4-1
		c0.1-1.9-1.3-3.5-3.6-3.7c-1.7-0.1-3.5-0.2-5,0.8c-1.2,0.7-2,0.4-2.5-1c-0.6-1.5,0.4-1.9,1.4-2.4c6.9-3.6,13.6,0.4,13.8,8.1
		C218.3,219.3,218.3,220.4,218.3,221.8z"/>
	<path class="st1" d="M295,220.4c0-6.8,4-11.3,9.9-11.3c6,0,10,4.5,9.9,11.3c-0.1,6.8-4,11.3-10,11.3
		C298.7,231.7,295,227.3,295,220.4z"/>
	<path class="st1" d="M224.3,220.4c0-2.4,0-4.7,0-7.1c0-3.8,0.1-3.9,3.5-2.2c1.3,0.6,1.5-0.4,2.2-0.8c5.8-3.1,10.9-0.7,11.6,5.9
		c0.4,4.2,0.1,8.5,0.2,12.7c0,1.5-0.5,2.3-2.2,2.3c-1.8,0-1.9-1.2-1.9-2.6c0-3.8,0-7.5-0.1-11.3c-0.1-2.8-1.2-5.1-4.4-4.9
		c-3.1,0.2-5.3,1.6-5,5.4c0.2,3.4,0.1,6.9,0.1,10.4c0,1.4,0.2,2.9-2,3c-2.1,0.1-2.1-1.3-2.1-2.8C224.3,225.7,224.3,223,224.3,220.4z
		"/>
	<path class="st1" d="M68.7,220.2c0-2.8,0-5.7,0-8.5c0-1.5,1.2-3.1,2-2c2.4,3.1,3.9,0.4,5.7-0.2c4.6-1.5,9,0.8,9.5,5.6
		c0.5,4.7,0.3,9.4,0.4,14.1c0,1.3-0.5,2.1-1.9,2.1c-1.7,0.1-2.2-0.8-2.1-2.3c0-3.5,0-6.9,0-10.4c0-3-0.4-6.1-4.2-6
		c-3.6,0-5.7,2-5.3,6.1c0.3,3,0.1,6,0,9c-0.1,1.5,0.9,3.8-2.1,3.7c-2.9-0.1-1.7-2.5-1.8-3.9C68.6,224.9,68.7,222.5,68.7,220.2z"/>
	<path class="st1" d="M108.9,204.1c-0.1,2.9-0.5,6.2,4.3,5.3c1-0.2,1.8,0.5,1.7,1.7c-0.1,1.2-1,1.7-1.9,1.5c-4.1-0.7-4.3,1.7-4,4.7
		c0.2,2,0.1,4.1,0,6.1c-0.1,3.2,1.1,5.2,4.7,4.8c1-0.1,2.2-0.7,2.4,1.1c0.2,1.8-1,2-2.3,2.3c-5,1-8.7-1.8-9-7c-0.1-2.8,0-5.7,0-8.5
		c0-0.9,0.2-2.3-0.3-2.7c-4.7-3.7,2-5.8,1.3-8.9C105.8,204.4,107.6,203.3,108.9,204.1z"/>
	<path class="st1" d="M371.7,221.8c0-2.2,0-4.4,0-6.6c0-1,0.2-2-1.4-2.4c-3.1-0.8-3.1-2.5-0.2-3.2c2.2-0.6,1.5-2.1,1.8-3.2
		c1.2-3.7,3.5-5.9,7.6-5.8c1.2,0.1,2.8-0.3,2.8,1.6c0,1.6-1.3,1.5-2.5,1.4c-1.2-0.1-2.4,0.3-2.9,1.2c-1.1,1.8-3.6,4.2,1.1,4.7
		c1.2,0.1,2.2,0.4,2.1,1.9c-0.1,1.3-1.1,1.5-2,1.4c-2.7-0.3-2.6,1.3-2.6,3.2c0.1,4.2,0,8.5,0,12.7c0,1.3,0.1,2.5-1.8,2.5
		c-1.8,0-2.1-0.9-2-2.4C371.8,226.5,371.7,224.1,371.7,221.8z"/>
	<path class="st1" d="M282.6,222c0-1.9,0-3.8,0-5.7c0-0.6-0.1-1.3,0-1.9c0.6-2.5-5.4-1.5-2.7-4.3c1.5-1.5,2.7-2.6,3.4-4.7
		c1.1-3.8,4.1-5.4,8-5c1,0.1,2.1,0.2,2,1.4c0,1-0.6,1.8-1.8,1.6c-1.9-0.2-3.5,0.3-4.4,2.1c-0.8,1.7-1.9,3.8,1.6,3.7
		c1.1,0,2.3,0.1,2.3,1.7c0,1.6-1.1,1.8-2.3,1.7c-2.6-0.3-2.2,1.4-2.2,3c0,4.2,0,8.5,0,12.7c0,1.5,0,2.8-2.1,2.7
		c-1.9-0.1-1.8-1.4-1.8-2.6C282.6,226.4,282.6,224.2,282.6,222z"/>
	<path class="st1" d="M423.4,209c0.8,0.1,1.8,0.1,2.6,0.5c1.3,0.6,3.8,0.2,3.3,2.4c-0.5,2.7-2.6,1.2-4.1,0.8
		c-3.1-0.9-5.8-0.3-7.5,2.4c-2.1,3.3-2.2,6.9-0.3,10.3c1.8,3,4.8,3.2,7.9,2.6c1.4-0.3,3.4-2.5,4.1,0.5c0.6,2.6-2,2.4-3.5,2.7
		c-4.4,1.2-8.6,0.5-11.5-3.3c-3.1-4-3-8.5-1.1-13C415.1,210.7,418.8,209.2,423.4,209z"/>
	<path class="st1" d="M318.9,220.2c0-2.8,0-5.6,0-8.5c0-2.7,2.6-3.2,3.2-1.9c1.3,2.7,2,1.4,3.3,0.3c0.6-0.5,1.4-0.8,2.1-0.9
		c1.4-0.3,2.8-0.4,4.1,0.3c0.2,0.1,0,1.1-0.1,1.7c-0.5,2-1.8,1.2-3.2,1.3c-4,0.1-5.2,3-5.4,6.4c-0.2,3.3-0.1,6.6,0,9.9
		c0,1.4-0.2,2.5-2,2.4c-1.8,0-2-1.1-1.9-2.5C318.9,225.8,318.9,223,318.9,220.2z"/>
	<path class="st1" d="M407.5,220.1c0,2.8,0,5.7,0,8.5c0,1.4-0.1,2.5-1.9,2.6c-2,0.1-2.3-1.1-2.3-2.7c0-3.8,0.1-7.5,0-11.3
		c0-1.8,0.8-3.9-2.2-4.8c-1.5-0.4-1.3-2.3,0.8-2.9c3.7-1.1,5.5,0.2,5.6,4.1C407.5,215.7,407.5,217.9,407.5,220.1z"/>
	<path class="st1" d="M388,209.4c2.4,4,4.8-0.7,7.4-0.4c1.1,0.1,2.9-0.7,2.9,1.4c0,1.4-0.6,2.5-2.7,2.2c-4.1-0.6-5.6,2.2-5.8,5.6
		c-0.3,3.3-0.1,6.6-0.1,9.9c0,1.4,0.4,2.9-1.9,3.1c-2.2,0.1-2.1-1.3-2.1-2.8c0-5.5,0-11,0-16.5C385.7,210.6,385.8,209.3,388,209.4z"
		/>
	<path class="st1" d="M97.4,220.5c0,2.7,0,5.3,0,8c0,1.3,0,2.6-1.8,2.6c-2,0.1-2.2-1.2-2.2-2.8c0-3.6,0.1-7.2,0-10.8
		c-0.1-1.9,1.2-4.5-2.3-5.1c-0.9-0.2-0.9-1.4-0.5-2c1.1-2,3.1-0.9,4.7-1.1c1.6-0.2,2.2,0.6,2.2,2.2
		C97.3,214.6,97.4,217.6,97.4,220.5C97.4,220.5,97.4,220.5,97.4,220.5z"/>
	<path class="st1" d="M95.7,206.1c-1.4-0.5-2.4-1.2-2.4-2.7c0.1-1.5,1.1-2.2,2.5-2.2c1.4,0.1,2.3,0.9,2.2,2.4
		C97.9,205.2,96.8,205.7,95.7,206.1z"/>
	<path class="st1" d="M405.9,206c-1.5-0.1-2.4-0.9-2.7-2.2c-0.3-1.5,0.7-2.4,2.1-2.5c1.4-0.2,2.5,0.5,2.6,2
		C408.1,204.8,407.2,205.6,405.9,206z"/>
	<path class="st0" d="M166,161c-10.8,0-10.8,0-8.7-9.5c1.7-7.7,3.4-15.3,4.8-23.1c0.5-2.6,1.5-3.3,4-3.3c5.8,0.1,11.6-0.7,17.3,1.3
		c10.5,3.7,13.9,13.8,7.7,23.1C184.8,158.9,175.6,161.8,166,161z"/>
	<path class="st0" d="M172.4,118.1c-7.6,0-7.6,0-6.2-7.6c1.2-6.5,2.7-12.9,3.7-19.5c0.4-2.9,1.7-3.6,4.3-3.5
		c2.8,0.1,5.7-0.2,8.5-0.2c5.4,0,10.9,0.8,13.1,6.5c2.1,5.4,0.7,10.9-3,15.5C188.1,115,180.6,118.1,172.4,118.1z"/>
	<path class="st0" d="M285.5,138.9c-9.5,0-18.8,0-28.8,0c7-10.7,13.7-21,21-32.2C280.4,118,282.9,128.3,285.5,138.9z"/>
	<path class="st0" d="M183.1,221.9c0.7-2.2-1.7-5.8,3.3-5.6c5.1,0.2,7.4,1.8,7.3,5.9c-0.1,3.9-2.4,5.5-7,5.8
		C181,228.3,184.1,224,183.1,221.9z"/>
	<path class="st0" d="M185.2,213.5c-3.9-0.9-1.6-4.2-1.9-6.5c-0.6-3.5,2.2-2.6,4-2.6c3.1,0.1,5.2,1.5,4.7,5
		C191.5,213.3,188.4,213.2,185.2,213.5z"/>
	<path class="st0" d="M156.8,220.6c0,7.1-1.5,8.9-6.2,7.5c-4.4-1.3-4.9-4.9-4.6-8.6c0.4-4.3,3.3-7.3,6.8-7.1c2.4,0.1,4.3,1.1,4.1,4
		C156.7,217.7,156.8,219.2,156.8,220.6z"/>
	<path class="st0" d="M355.1,208.9c1.2,3.7,1.9,6.5,3,9c1.7,3.7,0.4,4.3-3.2,4.3c-3.8,0-4.8-0.8-3.1-4.4
		C353,215.4,353.7,212.7,355.1,208.9z"/>
	<path class="st0" d="M129.1,218.1c-1.9-1.1-5.4,1.3-5.6-1.4c-0.3-2.9,2.8-4.3,5.7-4.4c2.8,0,5.6,1.5,5.4,4.2
		C134.3,219.4,130.9,217.1,129.1,218.1z"/>
	<path class="st0" d="M444,220.2c1.9-0.3,2.3,1.3,2.3,3.5c0,3.8-2.6,4.8-5.6,5c-2,0.1-3.9-0.9-3.7-3.3
		C437.3,221.5,439.9,220.4,444,220.2z"/>
	<path class="st0" d="M212.1,220.2c2.4-0.4,2.3,1.5,2.3,3.6c0.1,3.7-2.6,4.5-5.2,4.8c-2.1,0.2-4.3-0.8-4-3.5
		C205.6,221.5,208.3,220.3,212.1,220.2z"/>
	<path class="st0" d="M310.5,220.2c0,5.2-2.1,8.2-5.7,8.2c-3.7,0-5.7-2.7-5.8-7.7c-0.1-5.2,2.3-8.7,6.1-8.6
		C308.6,212.3,310.5,215.1,310.5,220.2z"/>
</g>
</svg>
