<?xml version="1.0" encoding="utf-8"?>
<!-- Generator: Adobe Illustrator 26.0.1, SVG Export Plug-In . SVG Version: 6.00 Build 0)  -->
<svg version="1.1" id="Calque_1" xmlns="http://www.w3.org/2000/svg" xmlns:xlink="http://www.w3.org/1999/xlink" x="0px" y="0px"
	 viewBox="0 0 1324.1 416.7" style="enable-background:new 0 0 1324.1 416.7;" xml:space="preserve">
<style type="text/css">
	.st0{fill:url(#SVGID_1_);}
	.st1{fill:url(#SVGID_00000143616790781775724830000005263000173137511306_);}
	.st2{fill:#E8E8E8;}
	.st3{fill:#FFFFFF;}
	.st4{fill:#EAB036;}
</style>
<g>
	<g id="clients_00000045602654007047780530000000380220149493193888_">
		<g id="icon_00000103267506426872197510000013231054699401115777_">
			<linearGradient id="SVGID_1_" gradientUnits="userSpaceOnUse" x1="13.3044" y1="209.8878" x2="326.2477" y2="209.8878">
				<stop  offset="0" style="stop-color:#EBBB39"/>
				<stop  offset="0.2036" style="stop-color:#FDE785"/>
				<stop  offset="0.6005" style="stop-color:#975102"/>
				<stop  offset="1" style="stop-color:#EDB037"/>
			</linearGradient>
			<path class="st0" d="M203.5,74.7c20.8,0,41.6-0.2,62.4,0c18.4,0.2,32.7,8.5,40.6,24.7c8.5,17.4,6.1,34.6-5.8,50.2
				c-9.3,12.2-22.2,15.6-36.8,15.6c-31.1-0.1-62.3-0.1-93.4,0.2c-9.8,0.1-19.8,0.1-29.5,1.8c-24.4,4.3-38.9,18.8-35.6,48.4
				c0.5,4.7,1.6,9.6,3.3,14c6.2,16,19.2,22.8,35.3,23.3c30.6,0.9,61.2,1.1,91.9,1.5c16.4,0.2,32.8-0.4,49.2,0.3
				c23.5,1,40.6,21.2,41.2,43.2c0.5,20.3-10.1,36.6-29,44.4c-4.2,1.7-9.1,2.6-13.7,2.6c-33.3,0-66.6-0.3-99.9-0.6
				c-16.7-0.1-33.4,0.2-50.1-0.7c-24.2-1.4-46.3-9.7-65.6-24c-28.7-21.2-46.6-49.6-52.4-85.1c-8-49.7,6.1-92.3,42.9-126.5
				c22.9-21.3,51-31.9,82.3-32.7c20.9-0.6,41.9-0.1,62.9-0.1C203.5,75.1,203.5,74.9,203.5,74.7z M211.8,285.6c0-0.1,0-0.1,0-0.2
				c-8.1,0-16.3,0.1-24.4,0c-16.7-0.2-33.6,0.6-50.1-1.2c-22-2.4-39.6-13.6-51.9-32.4c-10.1-15.4-12.5-32.3-11-50.5
				c3-37.6,32-65.4,69.9-65.7c26.8-0.2,53.5-0.2,80.3-0.5c13.9-0.1,27.9-0.3,41.8-0.8c8.3-0.3,14-6.6,13.8-14.7
				c-0.1-7.8-5-12.8-13.3-13.5c-3.9-0.3-7.8-0.6-11.7-0.6c-35.7,0.2-71.3,0.4-107,0.7c-21.4,0.2-41.4,5.3-59.5,17.2
				c-24.3,15.9-38.5,38.4-43,66.7c-3.4,21-1.1,41.7,6.4,61.7c12.5,33.3,36.5,53.2,71.5,58.8c17.7,2.8,35.7,3.8,53.7,4.3
				c23.1,0.6,46.3-0.3,69.5-0.4c11.6-0.1,23.2,0,34.7-0.1c5.8-0.1,10.3-2.6,12.5-8.1c2.7-6.7,1.9-13-3.4-16.5
				c-3.6-2.4-8.6-3.8-13.1-3.9C255.6,285.4,233.7,285.6,211.8,285.6z"/>
			
				<linearGradient id="SVGID_00000086670234653668305600000013972374647087877040_" gradientUnits="userSpaceOnUse" x1="23.5744" y1="210.2066" x2="386.8129" y2="210.2066">
				<stop  offset="0" style="stop-color:#EBBB39"/>
				<stop  offset="0.2036" style="stop-color:#FDE785"/>
				<stop  offset="0.6005" style="stop-color:#975102"/>
				<stop  offset="1" style="stop-color:#EDB037"/>
			</linearGradient>
			<path style="fill:url(#SVGID_00000086670234653668305600000013972374647087877040_);" d="M25.8,306.7c5.1,4,9.9,8.3,15.2,12
				c18.2,13,36.2,26.2,54.8,38.6c17.1,11.4,36.5,16.4,56.8,16.9c23.1,0.5,46.3,0.2,69.5,0.3c20,0,40.1,0.7,60.1,0
				c30-1.1,52.4-15.1,66.3-41.8c14-27,7.4-63.5-14.2-84.9c-17.7-17.6-39.1-23.3-63.3-22.7c-22.5,0.5-44.9-0.1-67.4-0.1
				c-16.7,0-33.5,0.4-50.2,0.4c-3.5,0-7.3-0.5-10.5-1.8c-6-2.4-9-8-8.5-14.3c0.5-6,5.3-12,11.3-13.6c2.5-0.7,5.3-1,7.9-1
				c13.9,0.2,27.8,0.7,41.7,0.9c22.2,0.2,44.4,0,66.6,0.3c33.9,0.5,65.4-21.5,75.8-53.6c4.2-12.9,3.7-26.2,0.6-39.3
				c-4.1-17.4-12.6-32.2-26.8-43.3c-11.1-8.7-24-12.9-37.9-13.2c-27.2-0.5-54.4-0.8-81.6-0.8c-17,0-34.1,0.7-51.1,1.3
				c-17.1,0.6-32.3,7-46.1,16.7c-15.7,11-31.5,22.1-46.7,33.7c-7,5.4-12.9,12.3-19.2,18.5c-1.4,1.4-2.7,2.9-5,5.4c0-2.9-0.3-4.5,0-6
				c4.9-24.2,17.7-44.2,34.6-61.6C74.6,36.9,93.8,24.1,117.2,20c15.9-2.8,32.3-4.1,48.5-4.6c30.6-0.9,61.3-1,91.9-0.7
				c22.5,0.2,45,2.9,64.3,15.6c30.1,19.8,47.7,47.4,49.5,84.1c1.4,27.5-6.5,51.8-24.5,72.6c-4.6,5.3-10,9.8-15.2,14.6
				c-3.3,3.1-3,5.2,0.9,7.5c10.4,5.9,20.2,12.6,28,21.7c20.6,24.2,29.5,52.3,24.9,83.5c-6.3,43-31.4,71.3-72,86.2
				c-12.8,4.7-26.3,5.2-39.8,5.1c-41.8-0.2-83.6,1-125.3-0.5c-47.8-1.7-85.2-23.5-110.3-64.6C33,332,29.7,322.2,25.6,313
				c-0.7-1.6-0.8-3.5-1.2-5.2C24.8,307.4,25.3,307.1,25.8,306.7z"/>
		</g>
	</g>
	<g>
		<path class="st2" d="M1316.9,406.4c-0.2,0-0.4,0-0.6,0c-1-1.3-0.7-2.8-0.7-4.2c0-26,0-52,0-78c0-36.8,0-73.7,0-110.5
			c0-1.4-0.3-2.9,0.6-4.3c0.2,0,0.4-0.1,0.6-0.1C1316.9,275,1316.9,340.7,1316.9,406.4z"/>
		<path class="st3" d="M1316.3,209.4c0.1,0.8,0.2,1.7,0.2,2.5c0,64,0,128.1,0,192.1c0,0.8-0.1,1.5-0.1,2.3c-298.2,0-596.5,0-894.7,0
			c-2.2,0-2.6-0.7-2.6-2.7c0.1-63.8,0.1-127.5,0-191.3c0-2.4,0.5-3,3-3c166.6,0.1,333.3,0.1,499.9,0.1c130.4,0,260.9,0,391.3,0
			C1314.3,209.5,1315.3,209.4,1316.3,209.4z"/>
		<path class="st4" d="M1278.4,152.1c0.9-12.4,0.5-22.3,0.9-32.1c0.1-2.7,0-2.8-3.3-2.8c-15-0.3-30-0.4-45,0c-2.1,0.1-4.8-1-6.2,0.6
			c-1.2,1.4-0.3,4-0.3,6.1c0.3,17.8,0.6,35.5,0.9,53.3c0,2.1-0.2,4.1-1.1,6.1c-1.4,3-3.8,4.4-7,4.4c-1.7,0-3.4-0.2-5-0.4
			c-4-0.6-8-0.2-11.9,0.3c-7,1-10.9-2.5-10.9-9.5c0.1-20.3,1.2-40.6,1.7-60.9c0.4-15.8,0-31.7-0.6-47.5c-0.1-4-0.4-8-0.4-12
			c-0.2-11.5-0.5-22.9-0.6-34.4c0-4.9,3.4-8,8.3-8c1.8,0,3.5,0.1,5.3,0.4c3.9,0.6,7.8,0.2,11.7-0.3c7-0.9,10.8,2.3,10.6,9.4
			c-0.4,17.7-0.8,35.4-1.3,53c-0.1,3.3-0.1,3.3,3.3,3.4c16.5,0.5,33.1,0.5,49.6,0c2-0.1,2.6-0.5,2.6-2.6c0-16.7-0.8-33.4-0.9-50.1
			c0-1.7,0-3.4,0-5.1c0.1-5,3.5-8.6,8.5-8.2c6.2,0.5,12.2,0.6,18.4,0c5.3-0.5,8.9,3.1,8.9,8.6c0,9-0.3,18-0.5,27
			c-0.2,6.1-0.4,12.3-0.6,18.4c-0.7,17.8-0.9,35.5-0.4,53.3c0.4,15.8,1.1,31.5,1.7,47.3c0.1,3.1,0.1,6.3,0,9.5
			c-0.1,4.8-3.5,8.3-8.3,8.4c-1,0-2,0.1-3-0.1c-4.7-0.9-9.3-0.7-14,0c-5.4,0.8-9-1.1-10.5-5.3c-0.5-1.3-0.4-2.6-0.4-3.9
			C1278.4,168.7,1278.4,159.1,1278.4,152.1z"/>
		<path class="st4" d="M588.8,79.6c10.9-0.5,21.8-0.8,32.7-1.8c6.2-0.6,9.5,2.5,9.2,8.8c-0.3,7.6-0.9,15.2-1.6,22.8
			c-0.4,4.4-3.6,7-8.1,7.2c-3.5,0.1-6.9-0.7-10.3-1c-12.1-1.1-24.3-0.8-36.4-0.5c-1.5,0-2.4,0.3-2.3,2.2c0.1,9.2,0.1,18.5,0.2,27.7
			c0,1.1,0.2,2.3,0.3,3.4c0.5,3.6,0.5,3.8,4,3.9c7.8,0.4,15.5,0.3,23.3-0.5c6.2-0.6,12.4-1.1,18.6-1.6c2.5-0.2,5-0.1,7.3-0.7
			c7.3-1.6,10.6,4,9.9,10.1c-0.4,3.4-1.2,6.8-1.6,10.2c-0.5,3.7-0.8,7.5-1.3,11.2c-0.8,6-4.5,8.9-10.4,7.8
			c-18.3-3.2-36.8-2.3-55.2-1.9c-6.8,0.2-13.7,0.4-20.5,0.5c-6.1,0.1-9.6-3.4-9.6-9.6c0-14.5,0.7-28.9,1.3-43.3
			c0.9-20.8,1.4-41.6,0.4-62.5c-0.4-8.2-0.4-16.4-0.7-24.7c-0.3-8.6-0.6-17.2-1-25.8c-0.3-6.8,2.7-9.9,9.5-9.7
			c9.9,0.2,19.8,0.5,29.8,0.8c13.5,0.4,26.9-0.6,40.4-0.8c3.3,0,6.6-0.3,9.7,1.4c2.7,1.5,4.2,3.7,4.6,6.7c0.8,6.1,1.7,12.2,2,18.3
			c0.1,1.5,0,2.9-0.3,4.3c-0.8,3.5-3.6,5.8-7.3,5.8c-8,0-16-0.5-24-1c-8.1-0.5-16.3-1.3-24.4-1.1c-4.2,0.1-4.6,0.4-4.7,4.6
			c-0.1,8.9-0.1,17.8-0.2,26.8c0,1.6,0.7,1.8,2.1,1.8C579,79.6,583.9,79.6,588.8,79.6z"/>
		<path class="st4" d="M877.9,100.8c0,12.5,1.7,24.7,7.7,35.9c3.4,6.3,7.8,11.6,14.9,14c8.1,2.7,15.6,1.1,22.5-3.8
			c4.1-2.9,7.3-6.6,10.4-10.4c1.3-1.6,2.7-3.2,4.3-4.5c3.2-2.6,6.8-2.2,9.2,1.2c4,5.7,7.6,11.7,10.8,18c1.6,3.1,1.5,6.1-0.3,9
			c-9.8,15.6-22.7,27.2-41.6,30c-15.4,2.2-29.6-1.1-42-11.1c-9.7-7.8-16.3-17.9-21.2-29.1c-5.6-12.8-8.1-26.2-8.9-40
			c-0.9-15.3,0.4-30.4,4.7-45.1c4.9-16.3,12.7-30.8,26.2-41.7c11.8-9.5,25.4-12.6,40.2-11.1c17.7,1.8,30.8,11,40.3,25.6
			c2.5,3.9,3.1,7.9,1.2,12.3c-2.7,6.2-5.3,12.4-9.2,18c-3.2,4.7-7.3,5.1-11.5,1.4c-2.4-2.2-4.1-4.9-6.2-7.4
			c-4.1-4.8-8.4-9.2-14.8-10.9c-10.6-2.8-20.7,1.1-27,10.6c-5.5,8.3-8.2,17.6-9.3,27.4C878.1,93,877.8,96.9,877.9,100.8z"/>
		<path class="st4" d="M669,189.9c-3.5,0-6.9-0.1-10.2-1.3c-4.2-1.5-5.9-3.8-6.3-8.1c-0.7-7.4-2-14.8-3.8-22c-1.3-5,1.7-10.8,8.4-10
			c3.2,0.4,6.4,0.8,9.6,1c6.5,0.4,12.9,0.1,18.7-3.4c3.1-1.9,5.1-4.7,5.9-8.2c2-8.3-0.3-15.1-7.3-20.3c-6.5-4.7-12.9-9.5-19.4-14.1
			c-7.2-5.1-11.8-12.1-14.3-20.4c-5.1-16.9-4.2-33.5,4.1-49.2c7.3-13.8,18.9-21.8,34.8-22.7c13.5-0.8,25.8,3,37.1,10.2
			c1.3,0.8,2.5,1.8,3.5,3c1.9,2.4,3.4,4.8,1.5,8.3c-3.5,6.4-5.5,13.5-8,20.3c-1.3,3.6-3.8,5.4-7.7,5.4c-1,0-2,0-3,0
			c-1.2,0-2.6,0.2-2.3-1.7c0.1-0.6-0.5-0.7-0.9-0.9c-4.7-2.1-9.2-4.5-14.3-5.5c-1.9-0.4-3.8-0.4-5.7,0c-4.6,0.9-6.9,3.9-7.6,8.9
			c-1,7.3,1.9,12.7,7.8,16.7c6.3,4.2,12.5,8.6,18.9,12.8c6.9,4.5,11.9,10.6,14.6,18.2c7.5,21.1,5.9,41.6-7.2,60.2
			c-9.7,13.7-23.5,21-40.3,22.5c-1.5,0.1-2.9,0.2-4.4,0.3C670.4,189.9,669.7,189.9,669,189.9z"/>
		<path class="st4" d="M1117.1,189.9c-4.1-0.2-8.3-0.1-12.1-2.1c-2.5-1.3-3.9-3.3-4.2-5.9c-0.8-7.7-2.2-15.3-3.9-22.9
			c-1.4-6.2,2.1-10.3,8.4-10c3.1,0.2,6.3,0.7,9.4,1c4.5,0.4,8.9,0.1,13.3-1c8.9-2.2,11.9-9.2,11.3-17.3c-0.5-6.8-5.1-10.8-10.2-14.5
			c-6.4-4.6-12.9-8.9-19-13.9c-6-4.9-9.8-11.6-11.9-19.1c-4.4-15.8-3.5-31.3,3.7-46.2c8.5-17.4,26.2-26.3,45.5-23
			c9.6,1.6,18.6,4.5,26.6,10.2c0.8,0.6,1.6,1.2,2.3,1.9c2.8,2.9,3.3,5.2,1.6,8.8c-3,6.3-5.1,13-7.6,19.5c-1.6,4.2-4,5.8-8.4,5.8
			c-1.1,0-2.2,0-3.2,0c-0.6,0-1.3,0-1.2-0.8c0.2-1.7-1.2-2-2.2-2.5c-3.5-1.5-6.8-3.3-10.4-4.2c-3.5-0.9-7-1.3-10.4,0.2
			c-1.8,0.7-3.2,2-3.9,3.8c-2.1,5.5-2.3,12.5,2.9,17.3c3.6,3.4,8,5.7,12,8.6c5.5,4,11.7,7.1,16.4,12.2c7,7.4,10.6,16.5,11.7,26.5
			c1.6,13.6,0,26.8-6.6,38.9c-8.5,15.6-21.8,24.8-39.3,28C1124.2,189.6,1120.7,189.8,1117.1,189.9z"/>
		<path class="st4" d="M805.6,92.1c-0.8,25.5,0.7,51,0.9,76.6c0,3.6,0.1,7.2,0,10.8c-0.1,4.6-3.5,7.9-8.1,8.1c-1.1,0-2.2,0-3.2-0.2
			c-4.8-0.7-9.5-0.7-14.2,0c-7.3,1.1-11.2-2.3-11.2-9.7c0-20.5,1.1-41,1.4-61.6c0.3-16.9,0.1-33.8-0.1-50.8
			c-0.1-5.3-0.3-10.6-0.4-15.9c0-1.4-0.4-1.8-1.9-1.7c-8.8,0.6-17.6,1.4-26.5,1.4c-5.1,0-7.8-2.8-7.7-7.9c0.1-2.4,0.5-4.7,1.1-7
			C737,28.9,737,23.4,738,18c0.9-4.6,4.3-7.1,8.9-6.7c7.8,0.7,15.6,1.2,23.5,1.8c9.9,0.7,19.8,1.1,29.8,0.4
			c7.9-0.5,15.9-0.6,23.7-1.9c4.1-0.7,8-0.3,12-0.3c1.1,0,1.6,0.2,1.7,1.5c0.2,1.9,1.9,3.2,2.1,5.2c0.3,2.4,0.3,4.7,0,7.1
			c-0.5,3.7-0.2,7.5,0.2,11.3c0.2,2.1,0.3,4.1-0.2,6.2c-1,4.1-3.4,6.1-7.5,6c-8.1-0.2-16.2-0.5-24.2-1c-2.1-0.1-2.4,0.5-2.4,2.3
			C805.6,64,805.6,78,805.6,92.1z"/>
		<path d="M1186.7,333.7c4.4-0.3,8.8-0.5,13.1-0.9c1.6-0.2,1.9,0.4,2.1,1.8c0.3,3,1,5.9,2,8.7c3.9,10.9,12,16.4,23.3,17.3
			c5.2,0.5,10.5,0.4,15.4-1.7c6.3-2.7,10.3-7.2,10.6-14.3c0.3-6.8-3.1-11.6-8.9-14.7c-7.9-4.1-16.5-6.1-25.1-8
			c-13.3-3-26.3-6.8-38.1-13.9c-12-7.2-19.9-17.4-21.5-31.5c-2.1-18.8,5.3-33.4,21.2-43.6c9.5-6.1,20.2-8.8,31.3-9.8
			c12.4-1.1,24.9-1.3,37.3,0.5c9.7,1.3,19,3.8,27.3,9.1c11.8,7.6,17.4,19,20.4,32.2c0.4,1.6,0.6,3.3,1,5c0.3,1.4-0.1,1.9-1.6,2
			c-5.5,0.2-10.9,0.6-16.4,0.9c-9.4,0.5-18.7,1-28.1,1.6c-1.6,0.1-2.3-0.2-2.6-2.1c-2.7-14.3-11.5-20-26.4-19.5
			c-4.4,0.1-8.5,1.4-12,4.4c-6,5.2-5.3,13.6,1.9,17.4c4.4,2.3,9.2,3.2,14,4.3c15.3,3.4,30.6,6.8,45,13.1c8.8,3.8,16.7,9.1,22.7,16.9
			c6.8,8.8,9.1,18.9,8.8,29.8c-0.7,22.2-14.8,41.3-36.5,49.2c-8.7,3.2-17.6,4.8-26.8,5.2c-15.2,0.8-30.3,0.1-45.1-3.5
			c-20.2-5-32.3-18.2-38.5-37.5c-1.5-4.7-2.4-9.5-2.9-14.4c-0.2-1.6,0.2-2.1,1.9-2.1C1165.7,335.2,1176.2,334.4,1186.7,333.7
			C1186.7,333.7,1186.7,333.7,1186.7,333.7z"/>
		<path d="M516.3,222.4c12.8,0.2,25.5,1.4,37.5,6.3c14.7,5.9,24.9,16.5,32.1,30.3c2.2,4.2,4.1,8.6,5.7,13.1c0.4,1.2,0.5,1.7-1,2
			c-14.1,3.1-28.2,6.3-42.2,9.5c-1.9,0.4-1.8-0.8-2.1-1.8c-3.3-10.5-10.4-17.4-20.8-19.9c-18.2-4.5-34.4,5-39.2,22.6
			c-3.1,11.3-2.9,22.8-2.2,34.3c0.4,6.1,1.3,12.2,3.4,18c3.7,10.6,12.9,17.7,24.2,18.4c6.7,0.5,13.2,0.1,19.4-3
			c7.3-3.7,11.1-10.3,14.2-17.5c1.4-3.3,2.5-6.8,3.2-10.3c0.3-1.2,0.8-1.3,1.7-1c14,4.2,27.9,8.4,41.9,12.5c1.2,0.4,1.5,1,1.2,2.1
			c-6.5,27.2-21.7,46.5-49.9,52.9c-21.9,4.9-43.9,3.8-65.2-3.6c-13.2-4.6-22.8-13.8-30.7-25.1c-8.8-12.5-13.1-26.6-14.5-41.7
			c-1.2-13.8-0.9-27.5,2.3-41c6.7-28.8,24.6-46.6,53.1-54C497.6,223.2,506.9,222.4,516.3,222.4z"/>
		<path class="st4" d="M524.4,125.6c-0.9-10.5-4.7-20.1-11.8-28.2c-1-1.1-2.6-2-2.8-3.2c-0.2-1.4,1.6-2.4,2.5-3.6
			c9.7-13.8,11.7-28.9,7.8-45c-2.9-11.9-9.5-21-20.3-27c-7.7-4.3-16.1-6.1-24.8-6.3c-16.7-0.3-33.4-0.3-50.1-0.4
			c-1.2,0-2.5,0-3.7,0.2c-4.5,0.5-7.1,3.3-7.1,7.8c-0.2,13.2,0.3,26.5,0.8,39.7c0.6,16.3,1.2,32.6,1,48.9c-0.3,17.4-1,34.9-1.5,52.3
			c-0.1,0-0.2,0-0.3,0c0,6,0,12,0,18c0.1,5.6,3.2,8.7,8.7,8.7c1.6,0,3.2,0.1,4.8-0.1c10.7-0.9,21.4-0.9,32.1-0.8
			c7.8,0.1,15.7,0.3,23.5,0.5c4.2,0.1,8.3-0.6,12.2-2.1c9.4-3.5,15.7-10.5,20.6-18.9C523.3,153.7,525.7,139.9,524.4,125.6z
			 M448.7,61.6c0.1,0,0.1,0,0.2,0c0-4.9,0-9.8,0-14.8c0-1.5,0.4-2.2,2.1-2.3c7.5,0,15.1-0.4,22.6,0.9c8,1.4,12.9,6.7,13.7,14.7
			c1.3,12.6-4.8,17.2-16.2,18.4c-6.5,0.7-13.1,0.2-19.6,0c-2-0.1-2.9-0.7-2.8-3C448.9,70.9,448.7,66.2,448.7,61.6z M488.5,140.9
			c-1.7,6.7-6.4,9.9-12.9,10.7c-8.4,1.1-16.7,0.6-25.1,0.2c-1.5-0.1-1.7-0.7-1.7-2c0.1-5.6,0-11.2,0-16.8c-0.1,0-0.2,0-0.3,0
			c0-5.8,0-11.5,0-17.3c0-1.2,0.4-1.7,1.7-1.8c8.3-0.5,16.6-0.9,24.9,0c2,0.2,4.1,0.7,6.1,1.4c5.7,1.9,8.1,6.4,8.5,12
			C490.1,131.8,489.7,136.4,488.5,140.9z"/>
		<path class="st4" d="M1086.5,176.6c-4.2-14-8.3-28.1-12.5-42.2c-5-16.8-10-33.7-15-50.5c-4.9-16.5-9.9-33.1-14.8-49.6
			c-1.7-5.7-3.1-11.4-5.5-16.8c-1.9-4.5-4.8-6.1-9.4-5c-4.6,1.1-9.1,1-13.7,0.3c-6.5-1-9.1,0.7-11.1,7c-1.8,5.7-3.5,11.5-5.3,17.1
			c-5.1,15.8-10.3,31.5-15.4,47.2c-4.6,13.9-8.5,28.1-12.6,42.1c-5,16.8-9.9,33.7-14.8,50.6c-1.8,6.3,1.7,10.7,8.2,10.7
			c6.2,0,12.3,0,18.5,0c3,0,5.1-1.3,6.7-3.8c1.9-3,2.8-6.5,3.8-9.9c1.9-6.6,3.1-13.3,5.3-19.8c0.4-1.2,0.9-1.8,2.2-1.7
			c13.5,0.1,26.9,0,40.4,0c1.4,0,2.1,0.5,2.5,1.8c1.1,3.1,2,6.3,2.8,9.5c1.5,6.2,2.6,12.5,5.3,18.3c1.7,3.7,4.3,5.9,8.6,5.5
			c5.8-0.5,11.7-0.7,16.6,0C1085.8,187.7,1088.6,183.9,1086.5,176.6z M1031.8,115.6c-7,0-14,0-21,0.1c-1.5,0-1.8-0.5-1.4-2
			c3.6-13,7.6-25.9,11.5-38.8c0-0.1,0.2-0.2,0.6-0.5c1.8,6.2,3.6,12.1,5.4,18.1c2.1,7.1,4.1,14.1,6.2,21.2
			C1033.5,115.1,1033.4,115.6,1031.8,115.6z"/>
		<path d="M963.6,389.8c-8-15.5-15.6-31.3-24.3-46.5c-6.5-11.4-14.4-22-28.5-25.5c2.2-0.6,4.4-1.2,6.6-1.9
			c13.1-4.2,23.4-12,29.1-24.7c5-11.3,5.1-23.3,1.8-35.2c-4.3-15.4-14.6-24.8-30.3-28.2c-9-2-18.1-2.5-27.3-2.6
			c-29.3-0.1-58.7,0-88-0.1c-1.8,0-2.1,0.6-2.1,2.2c0,53.7,0.1,107.4,0,161.1c0,2.2,0.7,2.5,2.6,2.5c15.6-0.1,31.3-0.1,46.9,0
			c1.9,0,2.4-0.5,2.4-2.4c-0.1-19.3,0-38.6,0-57.9c0-1.9,0-3.8,0-5.8c0-1,0.3-1.3,1.3-1.4c5.9-0.2,11.5,0.7,16.3,4.5
			c3.5,2.8,5.7,6.6,7.8,10.5c9.1,16.7,18.1,33.5,27,50.3c0.8,1.5,1.6,2.2,3.5,2.2c17.8-0.1,35.6-0.1,53.4-0.1c0.7,0,1.5,0,2.4,0
			C963.8,390.3,963.7,390,963.6,389.8z M897.4,282.2c-2.2,4.3-5.9,7-10.6,8.2c-7.7,2-15.5,2.4-23.3,2.1c-2.9-0.1-5.9-0.1-8.8,0
			c-1.7,0.1-2.4-0.4-2.3-2.2c0.1-5,0-10,0-15c0,0,0,0,0,0c0-5,0-10,0-15c0-1.1-0.1-2,1.5-2c10.4,0.3,20.8-0.7,31.1,0.8
			C896.4,260.8,902.6,272.3,897.4,282.2z"/>
		<path d="M1134,297.9c-0.8-11.6-3-22.8-7.5-33.5c-7.4-17.6-20.1-29.5-38.2-35.4c-9.2-3-18.8-3.7-28.5-3.8c-25.5-0.1-51,0-76.4-0.1
			c-1.8,0-1.9,0.6-1.9,2.1c0,26.9,0,53.8,0,80.8c0,0,0,0,0,0c0,26.9,0,53.8,0,80.8c0,1.7,0.4,2.2,2.1,2.2c25.3-0.1,50.7,0,76-0.1
			c12.1-0.1,24-2,35.1-6.8c21.1-9.2,32.7-26.2,37.4-48.1C1134.7,323.3,1134.9,310.6,1134,297.9z M1081.2,330.1
			c-1.7,8.5-5.5,15.8-13.9,19.7c-4.6,2.2-9.6,2.8-14.6,2.9c-5.9,0.2-11.8,0-17.8,0.2c-1.8,0-2.3-0.4-2.3-2.2c0.1-14.3,0-28.6,0-42.9
			c0-14.4,0-28.8,0-43.1c0-1.8,0.4-2.3,2.3-2.3c7.3,0.2,14.7-0.4,21.9,1c16.9,3.3,21.6,11.5,24.3,24.3
			C1084.1,301.8,1084,316,1081.2,330.1z"/>
		<path d="M781.8,386.8c-20-53.2-40.1-106.4-60.1-159.7c-0.6-1.6-1.4-2-3-2c-17.1,0.1-34.2,0.1-51.3,0c-1.9,0-2.7,0.5-3.3,2.2
			c-4.5,12.1-9,24.2-13.6,36.3c-13.8,36.6-27.6,73.2-41.3,109.7c-2.2,5.7-4.3,11.5-6.5,17.2c0.4,0.1,0.6,0.2,0.9,0.2
			c16.6,0,33.3,0,49.9,0c1.4,0,1.6-0.8,1.9-1.8c2.4-7.8,4.9-15.7,7.2-23.5c0.5-1.6,1.1-2,2.7-2c18.1,0.1,36.2,0.1,54.3,0
			c1.3,0,2,0.3,2.4,1.7c2.3,7.8,4.7,15.5,7,23.3c0.5,1.7,1.1,2.3,3,2.3c16.3-0.1,32.6,0,49,0c0.7,0,1.4,0,2.3,0
			C782.7,389.2,782.2,388,781.8,386.8z M674.3,327.5c5.9-19.6,11.8-39.1,17.7-58.5c0.2,0,0.3-0.1,0.5-0.1
			c5.9,19.5,11.8,39,17.7,58.6C698.2,327.5,686.4,327.5,674.3,327.5z"/>
	</g>
</g>
</svg>
